<svg xmlns="http://www.w3.org/2000/svg" x="0px" y="0px" width="100" height="100" viewBox="0 0 50 50">
    <path d="M 24.671875 2 C 20.694875 2.105 16.926109 3.0452187 13.787109 4.8242188 C 14.833109 4.4052188 16.509609 4.0917969 17.974609 4.0917969 C 18.077609 4.0887969 18.17925 4.0878906 18.28125 4.0878906 C 22.23925 4.0878906 25.767078 6.0577031 27.705078 9.2207031 C 29.798078 12.569703 30 16.651 30 20 C 30 27.953 34.298375 30 38.484375 30 C 42.984375 30 47 25.231422 47 20.732422 C 46.895 10.999422 34.927875 2 24.671875 2 z M 15.824219 6 C 14.133219 6 12.426 6.3867188 11 7.1367188 C 5.348 10.133719 2.077 17.853 2 25 C 1.959 28.837 2.7566094 32.657781 4.4746094 35.800781 C 6.3586094 39.358781 8.9757656 42.182875 12.009766 44.171875 C 11.276766 43.438875 10.230047 42.078266 9.4980469 40.822266 C 7.5100469 37.264266 7.7190469 33.184938 9.4980469 29.835938 C 11.382047 26.277938 14.97625 23.880547 17.90625 22.310547 C 24.91725 18.647547 24.709156 13.520422 23.035156 9.8574219 C 21.827156 7.2404219 18.852219 6 15.824219 6 z M 47.693359 25.859375 C 47.379359 26.905375 46.856047 28.474469 46.123047 29.730469 C 44.135047 33.183469 40.577547 35.486328 36.810547 35.486328 C 32.729547 35.486328 28.880688 33.679391 26.054688 31.900391 C 23.940687 30.569391 21.857797 30 19.966797 30 C 16.802797 30 14.179141 31.595672 12.869141 33.888672 C 10.671141 37.655672 12.870656 43.515359 16.847656 45.818359 C 19.004656 47.084359 22.019297 48 24.654297 48 C 32.249297 48 40.826687 43.242672 44.554688 36.638672 C 46.542687 33.289672 47.589359 29.522375 47.693359 25.859375 z"></path>
</svg>